<svg xmlns="http://www.w3.org/2000/svg" width="16.91" height="15.906" viewBox="0 0 16.91 15.906">
  <defs>
    <style>
      .cls-1 {
        fill: #fff;
        fill-rule: evenodd;
      }
    </style>
  </defs>
  <path id="send.svg" class="cls-1" d="M1092.73,449.145a1.078,1.078,0,0,0-.25,1.874l3.46,2.541,12.27-9.757-10.85,10.8,4.72,3.474a1.19,1.19,0,0,0,1.05.177,1.216,1.216,0,0,0,.77-0.736l5.05-13.976a0.4,0.4,0,0,0-.09-0.406,0.39,0.39,0,0,0-.41-0.085Zm2.39,5.26,0.02,0.161,0.68,3.705a0.836,0.836,0,0,0,.48.618,0.826,0.826,0,0,0,.78-0.064,23.879,23.879,0,0,0,2.12-1.464Z" transform="translate(-1092.06 -443.063)"/>
</svg>
